#!OML:ASF F:\VICON\USERDATA\INSTALL\rory3\rory3.ASF
:FULLY-SPECIFIED
:DEGREES
53
root 0.3520316952525745 18.106271504764113 18.876288704100517 2.957037514833037 1.0048791490841869 -4.05440894302212
lfemur -35.0094314429145 0.6295615221942724 -18.77451003239606
ltibia 42.521474978835414
lfoot 0.4891226385501144 -10.970576727079441
ltoes -10.584859122671174
rfemur -3.811764246045062 3.499929245674111 30.53676469703022
rtibia 41.936809921483395
rfoot 0.44186658708655735 -6.626962676228366
rtoes -2.6091999954603633
lowerback 12.336607015530035 1.9239797457702594 5.5233294994888755
upperback -0.7860581382907871 3.7085962554644407 1.9427263774393404
thorax -8.193532160715352 1.7294242677468563 -1.5697898269867152
lowerneck -17.935190031693345 -4.747420332160455 -2.1796708956005033
upperneck 13.890743416358248 -6.547164267644665 2.813786262732096
head 7.332776575284142 -2.843665932658734 0.5464490293701665
lclavicle 3.0724827264545893e-16 -4.3067221206564905e-16
lhumerus -55.14574784061408 -10.547888309932507 98.20818536748389
lradius 109.92809656056411
lwrist 32.38374919754527
lhand -25.78210333421496 3.500183632997124
lfingers 7.125020000000001
lthumb 0.7421168595512841 33.27519350945584
rclavicle 3.0728743657241926e-16 -4.3064985682852257e-16
rhumerus -32.452182885794215 10.270914690401279 -94.43093971881878
rradius 102.58246265204632
rwrist -19.64014329921209
rhand -18.595342941967353 37.55773976991102
rfingers 7.125020000000001
rthumb 7.892716388825849 7.670288715468777
54
root 0.36931094590743885 18.197531721526317 19.474046030853614 2.9278125952030374 1.46970841385342 -4.02464136548399
lfemur -32.29043386234309 0.30434780167884645 -18.882373723539327
ltibia 38.40718032522636
lfoot 0.610492055300329 -11.274959195821197
ltoes -9.657512465311076
rfemur -2.557780240860488 3.9211026427611797 30.65282352062757
rtibia 42.71095612434421
rfoot 2.6776776137923104 -6.4136705379268095
rtoes -3.65137119699037
lowerback 12.124514959595793 2.0402815584433815 5.503122103989353
upperback -0.9521436884462207 3.722064021444135 1.7351667392420813
thorax -8.138958485272815 1.720821817105976 -1.5406735719964684
lowerneck -17.791941499649276 -4.757019621581707 -2.2015214797920333
upperneck 13.962420826544623 -6.505801323084421 2.9357718775147874
head 7.341605528006622 -2.884694314687189 0.5619541929448989
lclavicle 3.0724827264545893e-16 -4.3067221206564905e-16
lhumerus -55.22277751063405 -10.357696373821211 98.02477660257843
lradius 109.50450101850481
lwrist 32.15517378961843
lhand -25.710435025204188 3.374522064613849
lfingers 7.125020000000001
lthumb 0.747548253547603 33.103333034117654
rclavicle 3.0728743657241946e-16 -4.306498568285224e-16
rhumerus -33.07987684960297 10.495362272132235 -94.44623368401996
rradius 102.20171912744841
rwrist -19.653505461228185
rhand -18.502592757469454 37.59423901389295
rfingers 7.125020000000001
rthumb 7.941414473474085 7.714858739679987
55
root 0.37892706195706394 18.248119553995405 20.310527986871033 2.893385755109218 1.7789204808263301 -4.098408299875923
lfemur -30.918779621687683 0.0062444102175023275 -19.15922546052575
ltibia 35.883623015129544
lfoot 0.8178997991719266 -10.87233645078459
ltoes -9.111938282646665
rfemur -3.1507173369988273 4.157219205188467 30.703269959925226
rtibia 43.755315423097294
rfoot 4.569265762005688 -6.377032175635463
rtoes -4.380046573286627
lowerback 12.04393946114184 2.1055523516856334 5.348325712211965
upperback -1.1009288321157253 3.8483477996837063 1.5710606416616655
thorax -8.068889671182557 1.7602081673855414 -1.3967670469669924
lowerneck -17.744714965400966 -4.787528392711311 -2.2537024128798215
upperneck 13.925516122477653 -6.457655650347075 3.0388352872416626
head 7.344051678474559 -2.931270506390455 0.5731668720560399
lclavicle 3.0724827264545893e-16 -4.3067221206564905e-16
lhumerus -55.65925075967147 -10.584585026642948 97.76325809227637
lradius 109.06199737961187
lwrist 32.059673968235565
lhand -25.64112610097474 3.1977559585162334
lfingers 7.125020000000001
lthumb 0.7732416384884755 32.9631056913547
rclavicle 3.0728743657241877e-16 -4.306498568285228e-16
rhumerus -33.862050641491635 10.728851187559052 -94.55527435920959
rradius 101.92744152121762
rwrist -19.71055998160479
rhand -18.520817950054155 37.504672959499096
rfingers 7.125020000000001
rthumb 7.877891868060443 7.635136883359481
56
root 0.3825793039550835 18.268170803868244 21.397226878098646 2.82956561937136 2.0575993615433035 -4.1523233924304135
lfemur -29.779334902596055 -0.3390756213277395 -19.563354235089115
ltibia 34.8585328171132
lfoot -0.46250211134125685 -10.756790756048412
ltoes -7.90530647127447
rfemur -4.606688626567168 4.033051565160903 30.377863505222038
rtibia 45.05778622711186
rfoot 5.37678457246263 -6.768218555185497
rtoes -4.92160773086473
lowerback 12.072709560338211 2.094252822674258 4.998665084122985
upperback -1.2311963203479879 3.9146031205473637 1.406361667158006
thorax -8.097815906312281 1.6724634295457903 -1.3930327149125548
lowerneck -17.76966959437533 -4.827153764847741 -2.28643303777639
upperneck 13.820984237290718 -6.404672250262604 3.1418298447870012
head 7.345415938198808 -2.962808863263012 0.5892404504902309
lclavicle 3.0724827264545893e-16 -4.306722120656491e-16
lhumerus -55.549429859044736 -10.609754321448754 97.63416279515967
lradius 108.8322757256807
lwrist 32.309011746554056
lhand -25.605492340060295 3.046956167618325
lfingers 7.125020000000001
lthumb 0.8233013344943424 32.84687297679659
rclavicle 3.072874365724189e-16 -4.3064985682852276e-16
rhumerus -34.6940917324462 10.96865991998376 -94.74685903444217
rradius 101.70461676484278
rwrist -19.740587876639406
rhand -18.439155248078116 37.55250190541458
rfingers 7.125020000000001
rthumb 7.941535315309226 7.693208102748341
57
root 0.3816435508853255 18.25513436234788 22.7260744222991 2.637736581371261 2.314949302858635 -4.087221258643785
lfemur -28.314908860637427 -0.6056156133632061 -19.964088623676457
ltibia 35.13988324186435
lfoot 0.1416238357254782 -10.247549380179041
ltoes -7.017453119802498
rfemur -4.992491951571864 3.8820705621572813 30.343681927985507
rtibia 46.68761397662227
rfoot 5.825543107936749 -7.0914766946351815
rtoes -5.265357757366043
lowerback 12.187060803324872 1.986365494774859 4.426822820619032
upperback -1.2649414198861864 4.001871782135248 1.3311820847895968
thorax -8.04129101858933 1.645513031036762 -1.2191143768204817
lowerneck -17.80500972797408 -4.838753657499597 -2.313840285698059
upperneck 13.688284090550837 -6.401557711169396 3.211282752481191
head 7.3534768485903115 -2.9744976784024963 0.6152494192537061
lclavicle 3.0724827264545893e-16 -4.306722120656491e-16
lhumerus -54.70551934400769 -10.821172520810007 97.5839762179897
lradius 108.58423398858719
lwrist 32.59065293383866
lhand -25.538073443370543 2.9165835239888396
lfingers 7.125020000000001
lthumb 0.783689159551536 32.57666305415189
rclavicle 3.07287436572419e-16 -4.306498568285227e-16
rhumerus -35.35916946575999 11.218552617946376 -94.97170835096678
rradius 101.5275733372848
rwrist -19.700581868001667
rhand -18.431724408653306 37.58560769682992
rfingers 7.125020000000001
rthumb 7.92102355839301 7.681971624767367
58
root 0.36400479947325354 18.182804879687254 23.246378448680076 2.2510242551493533 2.5202415354927887 -3.969594314066751
lfemur -26.417650818226015 -0.7705302298998034 -20.295360685188385
ltibia 36.58256967414165
lfoot 1.2317120782338127 -9.469176505392307
ltoes -6.394519206921721
rfemur -7.3264938684411245 3.309800055549178 29.63173260328743
rtibia 48.62647172192371
rfoot 5.65161354930479 -7.398075912234441
rtoes -5.566730112428708
lowerback 12.403532233237048 1.8216920847244817 3.7407475028348918
upperback -1.2165219156873608 4.002769843416791 1.282792208363767
thorax -7.992888465512519 1.621114944543552 -0.9559358653703538
lowerneck -17.91270252641888 -4.870558342966046 -2.329635507555975
upperneck 13.589915406039122 -6.393606100382502 3.3030706686833766
head 7.3619980376726515 -2.9880191889813013 0.638842930830969
lclavicle 3.0724827264545893e-16 -4.306722120656491e-16
lhumerus -53.736014197746215 -11.285371590648712 97.60499642582926
lradius 108.4521296477714
lwrist 32.47716490226957
lhand -25.514918679699235 2.7361027162927956
lfingers 7.125020000000001
lthumb 0.7284767153769096 32.41612758555345
rclavicle 3.0728743657241946e-16 -4.306498568285224e-16
rhumerus -36.21237420491308 11.354479968032035 -95.26521842373147
rradius 101.40239152715196
rwrist -19.66442974058256
rhand -18.463200796572554 37.53579157425678
rfingers 7.125020000000001
rthumb 7.979326620191052 7.748392487405058
